<svg width="256" height="256" viewBox="0 0 256 256" fill="none" xmlns="http://www.w3.org/2000/svg">
<path fill-rule="evenodd" clip-rule="evenodd" d="M97.3708 92.8C97.3708 108.681 110.29 121.6 126.171 121.6C142.052 121.6 154.971 108.681 154.971 92.8C154.971 76.9189 142.052 64 126.171 64C110.29 64 97.3708 76.9189 97.3708 92.8ZM183.771 164.8C183.771 145.627 145.426 136 126.171 136C106.916 136 68.5708 145.627 68.5708 164.8V170.971C68.5708 175.497 72.2737 179.2 76.7994 179.2H175.542C180.068 179.2 183.771 175.497 183.771 170.971V164.8ZM52.1137 164.8C52.1137 152.622 58.6965 143.406 68.2417 136.494C47.9994 138.715 19.1994 148.178 19.1994 164.8V170.971C19.1994 175.497 22.9023 179.2 27.428 179.2H52.1137V164.8ZM47.9994 92.8C47.9994 108.681 60.9183 121.6 76.7994 121.6C81.2428 121.6 85.3571 120.53 89.1423 118.72C83.9582 111.397 80.9137 102.427 80.9137 92.8C80.9137 83.1726 83.9582 74.2034 89.1423 66.88C85.3571 65.0697 81.2428 64 76.7994 64C60.9183 64 47.9994 76.9189 47.9994 92.8ZM200.228 164.8C200.228 152.622 193.645 143.406 184.1 136.494C204.342 138.715 233.142 148.178 233.142 164.8V170.971C233.142 175.497 229.439 179.2 224.913 179.2H200.228V164.8ZM204.342 92.8C204.342 108.681 191.423 121.6 175.542 121.6C171.099 121.6 166.984 120.53 163.199 118.72C168.383 111.397 171.428 102.427 171.428 92.8C171.428 83.1726 168.383 74.2034 163.199 66.88C166.984 65.0697 171.099 64 175.542 64C191.423 64 204.342 76.9189 204.342 92.8Z" fill="#828282"/>
</svg>
