<svg width="256" height="256" viewBox="0 0 256 256" fill="none" xmlns="http://www.w3.org/2000/svg">
<path fill-rule="evenodd" clip-rule="evenodd" d="M128 216.889C177.092 216.889 216.889 177.092 216.889 128C216.889 78.9079 177.092 39.111 128 39.111C78.9081 39.111 39.1112 78.9079 39.1112 128C39.1112 177.092 78.9081 216.889 128 216.889ZM128 234.667C186.91 234.667 234.667 186.91 234.667 128C234.667 69.0895 186.91 21.3333 128 21.3333C69.0897 21.3333 21.3334 69.0895 21.3334 128C21.3334 186.91 69.0897 234.667 128 234.667Z" fill="#219653"/>
<path d="M119.111 136.889V190.222H136.889V136.889H190.222V119.111H136.889V65.7777H119.111V119.111H65.7778V136.889H119.111Z" fill="#219653"/>
</svg>
